<svg width="35" height="35" viewBox="0 0 35 35" fill="none" xmlns="http://www.w3.org/2000/svg">
<g clip-path="url(#clip0_2092_2110)">
<path d="M6.93882 20.9195C6.42606 20.9661 5.9323 20.7132 5.67042 20.2699C5.40855 19.8266 5.42538 19.2722 5.71367 18.8456L17.6751 4.1506C17.8577 3.89839 18.1906 3.80621 18.4769 3.92858C18.7632 4.05095 18.9266 4.35525 18.8705 4.66153L17.0203 12.8787C16.9035 13.3005 17.0011 13.7528 17.2815 14.0888C17.562 14.4248 17.9895 14.6017 18.4254 14.5622L27.7209 13.7489C28.2336 13.7023 28.7274 13.9552 28.9893 14.3984C29.2512 14.8417 29.2343 15.3962 28.946 15.8228L16.9846 30.5178C16.802 30.77 16.4691 30.8622 16.1828 30.7398C15.8965 30.6174 15.7331 30.3131 15.7892 30.0069L17.6394 21.7897C17.7562 21.3679 17.6586 20.9156 17.3782 20.5796C17.0977 20.2436 16.6702 20.0667 16.2343 20.1062L6.93882 20.9195" stroke="black" stroke-width="2.66599" stroke-linecap="round" stroke-linejoin="round"/>
</g>
<defs>
<clipPath id="clip0_2092_2110">
<rect width="31.9919" height="32.0018" fill="white" transform="translate(0 2.78827) rotate(-5)"/>
</clipPath>
</defs>
</svg>
