<svg width="32" height="32" viewBox="0 0 32 32" fill="none" xmlns="http://www.w3.org/2000/svg">
<path d="M15.9997 9.33351L15.9997 28.0002M26.6663 14.6668L26.6663 25.3335C26.6663 26.8053 25.4714 28.0002 23.9997 28.0002L7.99967 28.0002C6.5279 28.0002 5.33301 26.8053 5.33301 25.3335L5.33301 14.6668M9.99967 9.33351C8.15996 9.33351 6.66634 7.8399 6.66634 6.00018C6.66634 4.16046 8.15996 2.66685 9.99967 2.66685C12.632 2.62098 15.0126 5.26617 15.9997 9.33351C16.9867 5.26617 19.3674 2.62098 21.9997 2.66685C23.8394 2.66685 25.333 4.16046 25.333 6.00018C25.333 7.8399 23.8394 9.33351 21.9997 9.33351" stroke="white" stroke-width="2.66667" stroke-linecap="round" stroke-linejoin="round"/>
<path d="M5.33333 9.3335L26.6667 9.3335C27.4026 9.3335 28 9.93094 28 10.6668L28 13.3335C28 14.0694 27.4026 14.6668 26.6667 14.6668L5.33333 14.6668C4.59745 14.6668 4 14.0694 4 13.3335L4 10.6668C4 9.93094 4.59745 9.3335 5.33333 9.3335V9.3335" stroke="white" stroke-width="2.66667" stroke-linecap="round" stroke-linejoin="round"/>
</svg>
