<svg width="35" height="35" viewBox="0 0 35 35" fill="none" xmlns="http://www.w3.org/2000/svg">
<path d="M4.34064 12.8526C4.60536 9.82749 6.70756 7.27869 9.62699 6.44317C12.5464 5.60766 15.6788 6.65838 17.5038 9.08538C17.6313 9.24803 17.8205 9.35057 18.0263 9.36858C18.2322 9.38659 18.4363 9.31846 18.5901 9.18042C20.8042 7.09162 24.0801 6.59148 26.8166 7.92444C29.5531 9.2574 31.1788 12.1451 30.8991 15.1761C30.6331 18.2171 28.4425 20.3135 26.2764 22.1312L18.3661 28.5484C17.8153 29.0795 17.0628 29.3483 16.3002 29.2864C15.5375 29.2246 14.8382 28.838 14.3802 28.2251L7.68543 20.5047C5.86781 18.3385 4.07343 15.9068 4.34064 12.8526" stroke="black" stroke-width="2.66599" stroke-linecap="round" stroke-linejoin="round"/>
</svg>
