<svg width="35" height="35" viewBox="0 0 35 35" fill="none" xmlns="http://www.w3.org/2000/svg">
<g clip-path="url(#clip0_2092_2090)">
<path d="M14.8425 8.28682C21.1332 6.97309 27.5288 10.0105 30.4858 15.7161C30.6225 16.0046 30.6512 16.3326 30.5666 16.6404C30.1813 17.8659 29.6337 19.0344 28.9384 20.1147M20.3475 19.9577C18.9165 21.6042 16.4299 21.8 14.7588 20.3978C13.0876 18.9955 12.8487 16.5127 14.2216 14.8175" stroke="black" stroke-width="2.66599" stroke-linecap="round" stroke-linejoin="round"/>
<path d="M25.2439 23.9998C21.8644 26.423 17.5989 27.2585 13.5549 26.2895C9.51084 25.3205 6.08723 22.6425 4.17291 18.9508C4.03616 18.6624 4.00746 18.3344 4.09205 18.0266C5.01963 15.0684 6.88159 12.4907 9.39849 10.6806M2.88837 5.21668L31.7704 29.4516" stroke="black" stroke-width="2.66599" stroke-linecap="round" stroke-linejoin="round"/>
</g>
<defs>
<clipPath id="clip0_2092_2090">
<rect width="31.9919" height="32.0018" fill="white" transform="translate(0 2.78827) rotate(-5)"/>
</clipPath>
</defs>
</svg>
