<svg width="28" height="28" viewBox="0 0 28 28" fill="none" xmlns="http://www.w3.org/2000/svg">
<path d="M23.3337 15.1666C23.3337 21 19.2503 23.9166 14.397 25.6083C14.1428 25.6944 13.8668 25.6903 13.6153 25.5966C8.75033 23.9166 4.66699 21 4.66699 15.1666V6.99995C4.66699 6.35605 5.18976 5.83329 5.83366 5.83329C8.16699 5.83329 11.0837 4.43329 13.1137 2.65995C13.6243 2.2237 14.3764 2.2237 14.887 2.65995C16.9287 4.44495 19.8337 5.83329 22.167 5.83329C22.8113 5.83329 23.3337 6.35562 23.3337 6.99995V15.1666" stroke="black" stroke-width="2.33333" stroke-linecap="round" stroke-linejoin="round"/>
<path d="M10.5 14L12.8333 16.3333L17.5 11.6666" stroke="black" stroke-width="2.33333" stroke-linecap="round" stroke-linejoin="round"/>
</svg>
