<svg width="28" height="28" viewBox="0 0 28 28" fill="none" xmlns="http://www.w3.org/2000/svg">
<path d="M11.2829 4.82534C11.4161 3.42399 12.593 2.35367 14.0007 2.35367C15.4084 2.35367 16.5852 3.42399 16.7184 4.82534C16.7969 5.71193 17.3025 6.50464 18.0735 6.94946C18.8444 7.39428 19.7838 7.43534 20.5906 7.0595C21.8696 6.47884 23.3804 6.96341 24.083 8.17963C24.7857 9.39584 24.4508 10.9467 23.3089 11.7647C22.5806 12.2757 22.147 13.1097 22.147 13.9994C22.147 14.8892 22.5806 15.7231 23.3089 16.2342C24.4508 17.0521 24.7857 18.603 24.083 19.8192C23.3804 21.0354 21.8696 21.52 20.5906 20.9393C19.7838 20.5635 18.8444 20.6046 18.0735 21.0494C17.3025 21.4942 16.7969 22.2869 16.7184 23.1735C16.5852 24.5749 15.4084 25.6452 14.0007 25.6452C12.593 25.6452 11.4161 24.5749 11.2829 23.1735C11.2047 22.2866 10.6988 21.4935 9.92755 21.0487C9.15628 20.6038 8.21653 20.563 7.40961 20.9393C6.13065 21.52 4.61982 21.0354 3.91717 19.8192C3.21452 18.603 3.5494 17.0521 4.69127 16.2342C5.41962 15.7231 5.85322 14.8892 5.85322 13.9994C5.85322 13.1097 5.41962 12.2757 4.69127 11.7647C3.55107 10.9464 3.21707 9.39686 3.91892 8.1815C4.62077 6.96614 6.12978 6.48095 7.40844 7.0595C8.21525 7.43534 9.15463 7.39428 9.92557 6.94946C10.6965 6.50464 11.2022 5.71193 11.2806 4.82534" stroke="white" stroke-width="2.33333" stroke-linecap="round" stroke-linejoin="round"/>
<path d="M10.5 14C10.5 15.9317 12.0683 17.5 14 17.5C15.9317 17.5 17.5 15.9317 17.5 14C17.5 12.0683 15.9317 10.5 14 10.5C12.0683 10.5 10.5 12.0683 10.5 14V14" stroke="white" stroke-width="2.33333" stroke-linecap="round" stroke-linejoin="round"/>
</svg>
