<svg width="35" height="35" viewBox="0 0 35 35" fill="none" xmlns="http://www.w3.org/2000/svg">
<path d="M22.1262 8.38721C21.9338 10.5859 23.5627 12.5272 25.7614 12.7195C27.9601 12.9119 29.9013 11.283 30.0937 9.08428C30.2861 6.88558 28.6572 4.94434 26.4585 4.75198C24.2598 4.55962 22.3185 6.18851 22.1262 8.38721L22.1262 8.38721" stroke="white" stroke-width="2.66599" stroke-linecap="round" stroke-linejoin="round"/>
<path d="M5.37811 16.2886C5.18575 18.4873 6.81464 20.4285 9.01334 20.6209C11.212 20.8132 13.1533 19.1843 13.3456 16.9856C13.538 14.7869 11.9091 12.8457 9.71041 12.6533C7.51171 12.461 5.57047 14.0899 5.37811 16.2886L5.37811 16.2886" stroke="white" stroke-width="2.66599" stroke-linecap="round" stroke-linejoin="round"/>
<path d="M20.5002 26.9782C20.3078 29.1769 21.9367 31.1181 24.1354 31.3105C26.3341 31.5028 28.2754 29.8739 28.4677 27.6752C28.6601 25.4765 27.0312 23.5353 24.8325 23.3429C22.6338 23.1506 20.6925 24.7795 20.5002 26.9782V26.9782" stroke="white" stroke-width="2.66599" stroke-linecap="round" stroke-linejoin="round"/>
<path d="M12.6253 18.9432L21.2326 25.0218M22.495 10.44L12.9762 14.9328" stroke="white" stroke-width="2.66599" stroke-linecap="round" stroke-linejoin="round"/>
</svg>
